<svg width="1728" height="1117" viewBox="0 0 1728 1117" fill="none" xmlns="http://www.w3.org/2000/svg">
<g opacity="0.2" clip-path="url(#clip0_52_24)">
<path opacity="0.1" d="M59 439C141.29 439 208 372.29 208 290C208 207.71 141.29 141 59 141C-23.2904 141 -90 207.71 -90 290C-90 372.29 -23.2904 439 59 439Z" stroke="white" stroke-width="10"/>
<path opacity="0.1" d="M1293.5 1381C1439.58 1381 1558 1262.58 1558 1116.5C1558 970.421 1439.58 852 1293.5 852C1147.42 852 1029 970.421 1029 1116.5C1029 1262.58 1147.42 1381 1293.5 1381Z" stroke="white" stroke-width="10"/>
<path opacity="0.1" d="M1361 488C1394.14 488 1421 461.137 1421 428C1421 394.863 1394.14 368 1361 368C1327.86 368 1301 394.863 1301 428C1301 461.137 1327.86 488 1361 488Z" stroke="white" stroke-width="10"/>
<path opacity="0.1" d="M984.594 209.002L1058.1 -76.128L1268.28 130.094L984.594 209.002Z" stroke="white" stroke-width="10"/>
<path opacity="0.1" d="M770 291H626V435H770V291Z" stroke="white" stroke-width="10"/>
<path opacity="0.1" d="M1052 564H996V620H1052V564Z" stroke="white" stroke-width="10"/>
<path opacity="0.1" d="M304.983 694.491L403.139 472.898L545.967 668.7L304.983 694.491Z" stroke="white" stroke-width="10"/>
<path opacity="0.1" d="M1644.59 690.282L1758.98 688.358L1703.45 788.382L1644.59 690.282Z" stroke="white" stroke-width="10"/>
</g>
<defs>
<clipPath id="clip0_52_24">
<rect width="1728" height="1117" fill="white"/>
</clipPath>
</defs>
</svg>
